<svg width="51" height="50" viewBox="0 0 51 50" fill="none" xmlns="http://www.w3.org/2000/svg">
<path d="M47.4607 38.7996L46.6949 38.101L45.9416 37.4138V38.4334V44.7045C45.9416 47.3759 43.7673 49.55 41.0957 49.55H28.7284C26.0569 49.55 23.8825 47.3759 23.8825 44.7045V38.4334V37.4138L23.1293 38.101L22.3634 38.7996L20.3375 36.5789L34.9119 23.2826L49.4866 36.5789L47.4607 38.7996ZM42.9354 34.8698V34.6712L42.7887 34.5374L35.2152 27.6285L34.9119 27.3518L34.6086 27.6285L27.0355 34.5374L26.8888 34.6712V34.8698V44.7041C26.8888 45.719 27.7136 46.5438 28.7284 46.5438H41.0957C42.1106 46.5438 42.9354 45.719 42.9354 44.7041V34.8698ZM10.1256 35.2505C13.5942 39.6362 17.5318 43.3035 19.5696 45.0989V49.0297L19.075 48.6302C18.8944 48.4842 14.4043 44.8391 9.85276 39.6136C3.56434 32.3938 0.45 25.9921 0.45 20.5729V20.0196C0.45 9.22927 9.22927 0.45 20.0196 0.45C30.8099 0.45 39.5892 9.22927 39.5892 20.0196V20.5729C39.5892 20.7264 39.5864 20.8809 39.581 21.0364L36.484 18.2111C35.58 9.92535 28.5422 3.45625 20.0196 3.45625C10.8863 3.45625 3.45625 10.8863 3.45625 20.0196V20.5729C3.45625 25.4545 6.58511 30.7738 10.1256 35.2505ZM37.4404 36.6804V41.6396H32.4813V36.6804H37.4404ZM20.0196 12.1687C24.348 12.1687 27.8704 15.6911 27.8704 20.0196C27.8704 24.348 24.348 27.8704 20.0196 27.8704C15.6911 27.8704 12.1688 24.348 12.1688 20.0196C12.1688 15.6911 15.6911 12.1687 20.0196 12.1687ZM20.0196 15.175C17.3478 15.175 15.175 17.3478 15.175 20.0196C15.175 22.691 17.3477 24.8642 20.0196 24.8642C22.691 24.8642 24.8642 22.691 24.8642 20.0196C24.8642 17.3477 22.691 15.175 20.0196 15.175Z" fill="#222222" stroke="white" stroke-width="0.9"/>
</svg>
