<svg width="19" height="18" viewBox="0 0 19 18" fill="none" xmlns="http://www.w3.org/2000/svg">
<path d="M18.3861 6.64999V6.74999V6.75004V6.7502V6.75081V6.75322V6.76263V6.79833V6.92577L18.3861 7.31248L18.3861 7.69918L18.3862 7.82661L18.3862 7.8623L18.3862 7.87168L18.3862 7.87404L18.3862 7.87408C18.3862 7.87366 18.3563 7.80364 18.2862 7.77496V7.87496V7.97496H17.1482L15.734 15.5167L18.3861 6.64999ZM18.3861 6.64999H18.2861H15.2862L12.1042 1.34661M18.3861 6.64999L12.1042 1.34661M12.1042 1.34661C11.9165 1.03331 11.5095 0.931239 11.1953 1.11941L11.1952 1.11946C10.8814 1.30775 10.7799 1.71469 10.9681 2.02844L13.741 6.64999H4.83125M12.1042 1.34661L4.83125 6.64999M4.83125 6.64999L7.60418 2.0284C7.79242 1.71465 7.6909 1.30771 7.37708 1.11942L7.37692 1.11933C7.06207 0.931194 6.6564 1.03335 6.46814 1.34644L6.4681 1.34652L3.28607 6.64995M4.83125 6.64999L3.28607 6.64995M3.28607 6.64995H0.286133H0.186133V6.74995V7.87496V7.97496H0.286133H1.424L2.83774 15.5162C2.83774 15.5162 2.83774 15.5162 2.83774 15.5163C2.99601 16.3617 3.73495 16.975 4.59499 16.975H13.9773C14.8373 16.975 15.5762 16.3618 15.734 15.5168L3.28607 6.64995ZM14.4316 15.2729L14.4316 15.273C14.391 15.4914 14.2 15.65 13.9773 15.65H4.59499C4.37231 15.65 4.18124 15.4915 4.14012 15.2723L2.77173 7.97496H15.8006L14.4316 15.2729Z" fill="#222222" stroke="#222222" stroke-width="0.2"/>
</svg>
