<svg width="15" height="26" viewBox="0 0 15 26" fill="none" xmlns="http://www.w3.org/2000/svg">
<path d="M13.56 0.0222915L10.3181 0.0170898C6.67588 0.0170898 4.32212 2.43196 4.32212 6.16962V9.00635H1.0625C0.780828 9.00635 0.552734 9.23471 0.552734 9.51638V13.6265C0.552734 13.9081 0.781088 14.1362 1.0625 14.1362H4.32212V24.5073C4.32212 24.789 4.55022 25.0171 4.83189 25.0171H9.08477C9.36644 25.0171 9.59453 24.7887 9.59453 24.5073V14.1362H13.4058C13.6875 14.1362 13.9156 13.9081 13.9156 13.6265L13.9171 9.51638C13.9171 9.38113 13.8633 9.25161 13.7678 9.1559C13.6724 9.06019 13.5423 9.00635 13.4071 9.00635H9.59453V6.60162C9.59453 5.44581 9.86996 4.85906 11.3756 4.85906L13.5595 4.85828C13.8409 4.85828 14.069 4.62993 14.069 4.34852V0.532055C14.069 0.250905 13.8412 0.0228117 13.56 0.0222915Z" fill="black"/>
</svg>
