<svg width="19" height="18" viewBox="0 0 19 18" fill="none" xmlns="http://www.w3.org/2000/svg">
<path d="M6.47236 15.1804L6.47312 15.181C7.09112 15.7076 7.79108 16.3042 8.51702 16.939C8.72765 17.1235 8.9979 17.225 9.27814 17.225C9.55821 17.225 9.82858 17.1235 10.0391 16.9393C10.7667 16.303 11.4677 15.7055 12.0869 15.178L12.0869 15.178L12.0931 15.1727C13.8998 13.633 15.4695 12.2952 16.5636 10.975C17.7915 9.49345 18.3701 8.07939 18.3701 6.52973C18.3701 5.02932 17.8557 3.64111 16.9171 2.62303C15.967 1.59252 14.6627 1.025 13.2463 1.025C12.1856 1.025 11.2135 1.36083 10.3595 2.0213C9.96248 2.32831 9.60065 2.69814 9.27815 3.12505C8.95574 2.69813 8.59381 2.32831 8.19694 2.02131L8.19693 2.0213C7.34295 1.36083 6.37082 1.025 5.31011 1.025C3.89359 1.025 2.58941 1.59252 1.63929 2.62302L1.63929 2.62303C0.700718 3.64111 0.186133 5.02931 0.186133 6.52973C0.186133 8.0794 0.76495 9.49346 1.99283 10.9751L2.06983 10.9113L1.99283 10.9751C3.08721 12.2956 4.65764 13.6339 6.46521 15.1742L6.46921 15.1776L6.46996 15.1783L6.47236 15.1804ZM2.95785 10.1753L2.88086 10.2391L2.95785 10.1753C1.90215 8.90151 1.43947 7.77928 1.43947 6.52973C1.43947 5.33949 1.83959 4.25487 2.56073 3.47262C3.27074 2.70263 4.24637 2.27848 5.31011 2.27848C6.08661 2.27848 6.79914 2.52487 7.43012 3.01277C7.99419 3.44902 8.38886 4.00228 8.62107 4.39154L8.62108 4.39157C8.76039 4.62496 9.00648 4.76481 9.27814 4.76481C9.5498 4.76481 9.79589 4.62496 9.9352 4.39157L9.84933 4.34031L9.9352 4.39156C10.1676 4.00228 10.5622 3.44901 11.1262 3.01276C11.7572 2.52487 12.4697 2.27848 13.2463 2.27848C14.3099 2.27848 15.2857 2.70263 15.9955 3.47262C16.7167 4.25486 17.1168 5.33949 17.1168 6.52973C17.1168 7.77928 16.6541 8.90151 15.5986 10.1753C14.5751 11.4104 13.0505 12.7098 11.2739 14.2241C10.6709 14.7377 9.98961 15.3184 9.27676 15.9384C8.568 15.3196 7.88783 14.7399 7.28614 14.2271L7.28528 14.2264L7.28284 14.2243C7.28268 14.2242 7.28252 14.2241 7.28237 14.2239C5.50579 12.7099 3.98128 11.4103 2.95785 10.1753Z" fill="black" stroke="black" stroke-width="0.2"/>
</svg>
