<svg width="26" height="27" viewBox="0 0 26 27" fill="none" xmlns="http://www.w3.org/2000/svg">
<path d="M17.8691 0.91709H8.49414C4.12485 0.91709 0.581641 4.4603 0.581641 8.82959V18.2046C0.581641 22.5739 4.12485 26.1171 8.49414 26.1171H17.8691C22.2384 26.1171 25.7816 22.5739 25.7816 18.2046V8.82959C25.7816 4.4603 22.2384 0.91709 17.8691 0.91709ZM23.2379 18.2046C23.2379 21.165 20.8295 23.5733 17.8691 23.5733H8.49414C5.53374 23.5733 3.12539 21.165 3.12539 18.2046V8.82959C3.12539 5.86919 5.53374 3.46084 8.49414 3.46084H17.8691C20.8295 3.46084 23.2379 5.86919 23.2379 8.82959V18.2046Z" fill="black" stroke="black" stroke-width="0.2"/>
<path d="M13.1816 7.16709C9.67485 7.16709 6.83164 10.0103 6.83164 13.5171C6.83164 17.0239 9.67485 19.8671 13.1816 19.8671C16.6884 19.8671 19.5316 17.0239 19.5316 13.5171C19.5316 10.0103 16.6884 7.16709 13.1816 7.16709ZM13.1816 17.3233C11.0837 17.3233 9.37539 15.615 9.37539 13.5171C9.37539 11.4177 11.0837 9.71084 13.1816 9.71084C15.2796 9.71084 16.9879 11.4177 16.9879 13.5171C16.9879 15.615 15.2795 17.3233 13.1816 17.3233Z" fill="black" stroke="black" stroke-width="0.2"/>
<path d="M19.9012 7.73114C20.4164 7.73114 20.834 7.31351 20.834 6.79833C20.834 6.28315 20.4164 5.86552 19.9012 5.86552C19.386 5.86552 18.9684 6.28315 18.9684 6.79833C18.9684 7.31351 19.386 7.73114 19.9012 7.73114Z" fill="black" stroke="black" stroke-width="0.2"/>
</svg>
