<svg width="86" height="90" viewBox="0 0 86 90" fill="none" xmlns="http://www.w3.org/2000/svg">
<path fill-rule="evenodd" clip-rule="evenodd" d="M23.0845 46.0681C23.588 36.3006 28.2804 16.7657 43.0222 16.7657C57.764 16.7657 63.564 36.3006 64.6213 46.068C64.6994 46.6927 64.5353 46.9749 64.3585 47.2788C64.1934 47.5627 64.0172 47.8657 64.0172 48.4847C64.0172 49.0386 64.3661 49.2695 64.7442 49.5197C65.1911 49.8155 65.6786 50.1381 65.6786 51.0525C65.6786 51.4829 64.9289 51.6067 64.1741 51.7313C63.3397 51.869 62.4992 52.0078 62.6578 52.5629C62.7937 53.0388 64.0006 53.3311 65.2455 53.6326C66.7666 54.0009 68.3445 54.3831 68.0953 55.1306C67.9044 55.7034 66.8019 55.8396 65.5898 55.9895C63.925 56.1952 62.0536 56.4266 62.0536 57.8494C62.0536 59.0706 62.4393 59.3276 62.8403 59.5948C63.233 59.8565 63.6404 60.1279 63.7151 61.3234C63.7967 62.6295 62.4224 63.4503 61.1421 64.215C60.0535 64.8652 59.0327 65.4749 59.0327 66.3078C59.0327 69.4797 80.934 67.6672 80.934 65.4015C80.934 64.5477 80.2614 64.2137 79.6046 63.8877C78.9782 63.5766 78.3662 63.2728 78.3662 62.5317C78.3662 61.7385 79.2826 61.4869 80.2186 61.2298C81.0649 60.9974 81.9271 60.7605 82.1423 60.115C82.4073 59.3201 81.3293 58.99 80.3884 58.7019C79.7203 58.4974 79.1214 58.314 79.1214 58.0004C79.1214 57.7032 79.9405 57.5931 80.9431 57.4584C82.4875 57.2509 84.4674 56.9849 84.559 55.8858C84.633 54.9973 83.9084 54.7621 83.1683 54.5219C82.3986 54.2722 81.6122 54.017 81.6892 53.016C81.768 51.9911 82.2172 51.9538 82.6716 51.9161C83.0878 51.8816 83.5083 51.8467 83.6527 51.0525C83.8284 50.0864 83.136 49.8863 82.5255 49.7099C82.0861 49.583 81.6892 49.4683 81.6892 49.0889C81.6892 48.6283 82.5535 48.4222 83.4826 48.2007C84.7507 47.8984 86.1393 47.5672 85.6163 46.5212C85.4902 46.269 85.3234 46.1832 85.1787 46.1088C85.0038 46.0189 84.8611 45.9455 84.8611 45.6149C84.8611 30.5948 78.6683 -1.86679e-06 43.0222 -1.86679e-06C7.37608 -1.56943e-06 0.478453 30.9134 1.7875 46.0681C1.86405 46.6039 2.282 46.6587 2.65992 46.7082C3.02767 46.7564 3.3575 46.7996 3.29791 47.2764C3.22523 47.8579 2.55793 47.9497 1.90195 48.0399C1.19478 48.1372 0.500776 48.2327 0.579138 48.9379C0.65048 49.58 1.32847 49.6492 2.00814 49.7186C2.76733 49.796 3.52865 49.8737 3.44896 50.7504C3.3748 51.5661 2.82732 51.7629 2.36068 51.9306C1.87687 52.1045 1.47996 52.2472 1.7875 53.016C2.06457 53.7087 3.1358 53.8614 4.19995 54.013C5.45623 54.192 6.70263 54.3696 6.62085 55.4327C6.55342 56.3094 5.67306 56.5538 4.74599 56.8111C3.59663 57.1302 2.37549 57.4692 2.5427 59.0577C2.84478 61.9276 25.8033 63.7401 27.4648 60.5682C28.3724 58.8354 25.5388 58.9958 22.756 59.1533C20.4448 59.2842 18.1686 59.413 18.1001 58.4536C18.02 57.3322 19.724 57.3152 21.3648 57.2989C22.8181 57.2844 24.2219 57.2704 24.2929 56.49C24.3629 55.7194 23.6856 55.5661 22.9391 55.3973C22.0762 55.2021 21.121 54.986 21.121 53.7712C21.121 52.5508 22.0414 52.6014 22.8906 52.6481C23.6179 52.6881 24.2929 52.7252 24.2929 51.9587C24.2929 51.0345 23.7788 50.9516 23.3225 50.8779C22.9586 50.8192 22.6314 50.7664 22.6314 50.2973C22.6314 49.7686 22.8957 49.6553 23.1601 49.542C23.4244 49.4288 23.6887 49.3155 23.6887 48.7868C23.6887 48.3122 22.8975 48.2028 22.08 48.0898C21.0762 47.951 20.0328 47.8068 20.3658 46.9743C20.5425 46.5324 21.0853 46.6509 21.6399 46.772C22.3525 46.9275 23.0845 47.0873 23.0845 46.0681ZM58.6981 79.3554L58.9116 79.2943C61.0014 78.6972 63.1515 79.3676 65.0356 79.955C66.9644 80.5563 68.6144 81.0708 69.6357 80.0495C70.7441 78.9411 69.7953 78.611 68.7788 78.2574C67.9946 77.9845 67.1701 77.6977 67.219 77.0287C67.2701 76.3294 69.2386 75.8708 71.5323 75.3363C74.6783 74.6033 78.4362 73.7276 78.6982 71.8932C79.0269 69.5924 74.6668 70.1526 70.9212 70.6339C69.5031 70.8161 68.1731 70.987 67.219 70.987C66.1803 70.987 65.0066 70.8384 63.8715 70.6948C61.21 70.358 58.7606 70.048 58.7606 71.7422C58.6981 72.9128 60.5038 72.9139 62.1773 72.9128C63.9521 72.9117 65.6486 72.9106 65.1044 74.3099C64.4998 75.5 61.3652 76.1287 58.329 76.644C54.8542 77.2337 51.6544 77.7768 53.172 79.2943C54.4483 80.5706 55.4832 80.2747 58.6981 79.3554ZM53.6251 84.5808C52.7717 83.9333 50.6187 84.041 48.6365 84.1401C47.392 84.2024 46.2146 84.2612 45.4688 84.1277C42.2417 83.5498 36.8594 83.6746 36.5573 85.0339C36.3408 86.008 37.1625 86.1665 38.2355 86.3735C38.6599 86.4554 39.1238 86.5449 39.5781 86.6954C40.9518 87.1505 41.7761 87.809 42.4708 88.3639C43.1995 88.946 43.7857 89.4142 44.7136 89.4142C45.7563 89.4142 47.8488 88.5644 49.697 87.8138C51.0612 87.2597 52.2926 86.7596 52.8699 86.6954C54.2293 86.5444 55.5277 86.0244 53.6251 84.5808ZM25.6822 81.56C24.0207 80.2006 25.3801 77.6328 33.0833 77.9349C40.7865 78.237 43.3112 78.6439 41.8438 80.0495C41.6181 80.2657 40.7342 80.2459 39.6334 80.2212C37.6413 80.1764 34.9388 80.1158 34.1406 81.4089C32.726 83.7009 27.0416 83.0704 25.6822 81.56ZM22.8627 65.3493C21.0814 65.3825 19.2399 65.4168 17.828 65.2473C16.7096 65.1131 15.3737 64.7221 14.0608 64.3377C10.9409 63.4243 7.95002 62.5487 8.31226 65.2473C8.41819 66.0364 9.9908 66.2595 11.6563 66.4958C13.872 66.8102 16.2521 67.1478 15.5623 68.8724C14.9942 70.2926 14.1802 70.7171 13.5456 71.048C12.8304 71.4209 12.3431 71.675 12.6925 73.1016C12.8866 73.8942 15.3135 73.7641 18.0575 73.617C20.2761 73.4981 22.7022 73.3681 24.3228 73.7057C27.9478 74.4609 33.8385 74.9141 33.8385 73.4036C33.8385 72.6748 31.4821 72.0866 29.0774 71.4864C26.4987 70.8427 23.8644 70.1852 24.0207 69.3255C24.1689 68.5104 25.5094 68.096 26.7689 67.7066C28.0769 67.3021 29.2977 66.9247 29.0051 66.1536C28.659 65.2413 25.8452 65.2937 22.8627 65.3493Z" fill="url(#paint0_linear)"/>
<defs>
<linearGradient id="paint0_linear" x1="43.0223" y1="89.4174" x2="43.0223" y2="-5.56856e-07" gradientUnits="userSpaceOnUse">
<stop stop-color="#5D4DF9"/>
<stop offset="1" stop-color="#DA055A"/>
</linearGradient>
</defs>
</svg>
