<svg width="89" height="46" viewBox="0 0 89 46" fill="none" xmlns="http://www.w3.org/2000/svg">
<mask id="path-1-inside-1" fill="white">
<path d="M86.6046 45.3103C86.6377 45.3036 86.6701 45.2947 86.7027 45.2863C86.7305 45.2792 86.7585 45.2733 86.7858 45.2649C86.8176 45.2552 86.8487 45.2432 86.8798 45.232C86.9073 45.2221 86.9351 45.2132 86.9624 45.2017C86.9917 45.1895 87.02 45.1752 87.0486 45.1617C87.0763 45.1484 87.1046 45.1362 87.1319 45.1214C87.1592 45.1069 87.1849 45.0903 87.2114 45.0745C87.2387 45.0582 87.2662 45.0429 87.2927 45.0251C87.321 45.0062 87.3473 44.9853 87.3745 44.9649C87.3975 44.9479 87.4209 44.9318 87.4433 44.9134C87.4846 44.8795 87.5239 44.8433 87.5621 44.8061C87.569 44.7995 87.5764 44.7939 87.5833 44.787C87.5904 44.7799 87.5965 44.772 87.6034 44.7646C87.6401 44.7269 87.6758 44.6881 87.7094 44.6474C87.7291 44.6234 87.7461 44.5984 87.7645 44.5737C87.7833 44.5482 87.8032 44.5235 87.8208 44.497C87.8397 44.4687 87.8562 44.4394 87.8736 44.4103C87.8881 44.3859 87.9036 44.3619 87.9172 44.3367C87.933 44.3074 87.9462 44.277 87.9602 44.2472C87.9727 44.2207 87.986 44.1945 87.9974 44.1672C88.0097 44.1379 88.0194 44.108 88.0301 44.0782C88.0405 44.0492 88.0517 44.0204 88.0606 43.9908C88.0698 43.9607 88.0764 43.9301 88.0841 43.8996C88.0915 43.8695 88.1002 43.8399 88.106 43.8096C88.1131 43.7737 88.1175 43.7375 88.1226 43.7013C88.1261 43.6758 88.131 43.6506 88.1335 43.6248C88.1399 43.5614 88.1432 43.4979 88.1432 43.4342V2.57619C88.1432 1.52025 87.2876 0.66465 86.2317 0.66465H26.0182C26.0014 0.66465 25.9851 0.666688 25.9683 0.667197C25.9318 0.668217 25.8956 0.669747 25.8594 0.672805C25.8306 0.675099 25.8021 0.678413 25.7736 0.682236C25.7409 0.686314 25.7086 0.691156 25.6762 0.697018C25.6459 0.702371 25.6158 0.708742 25.586 0.715624C25.5556 0.72276 25.5253 0.730407 25.4952 0.739072C25.4654 0.747483 25.4361 0.756657 25.407 0.766342C25.3772 0.776537 25.3474 0.787243 25.3181 0.798967C25.2903 0.809927 25.263 0.82114 25.236 0.833374C25.206 0.846882 25.1761 0.861411 25.1466 0.876449C25.1213 0.889447 25.0966 0.9027 25.0721 0.916718C25.0426 0.933539 25.0135 0.95138 24.9847 0.969731C24.961 0.985023 24.9378 1.00082 24.9149 1.01688C24.8879 1.036 24.8611 1.05588 24.8349 1.07678C24.8109 1.09589 24.7875 1.11552 24.7643 1.13565C24.7413 1.15579 24.7186 1.17592 24.6965 1.19733C24.6712 1.22154 24.647 1.24678 24.6231 1.27226C24.6111 1.28501 24.5983 1.29622 24.5869 1.30922C24.58 1.31687 24.5746 1.32528 24.568 1.33292C24.544 1.36071 24.5216 1.38976 24.4992 1.41907C24.4829 1.44048 24.4661 1.46189 24.4508 1.48381C24.4309 1.51235 24.4125 1.54166 24.3942 1.57123C24.3791 1.59544 24.3636 1.6194 24.3498 1.64412C24.3338 1.67267 24.3198 1.70198 24.3052 1.73129C24.292 1.75805 24.2782 1.78481 24.2662 1.81208C24.2537 1.84088 24.2428 1.8707 24.2318 1.90001C24.2209 1.92881 24.2097 1.95736 24.2002 1.98641C24.1908 2.01572 24.1832 2.04554 24.175 2.07536C24.1668 2.10595 24.1582 2.13628 24.1513 2.16712C24.1449 2.19592 24.1406 2.22523 24.1355 2.25428C24.1299 2.28742 24.1243 2.32055 24.1202 2.35368C24.1169 2.38121 24.1154 2.40925 24.1133 2.43728C24.1108 2.47296 24.1085 2.50865 24.108 2.54458C24.1077 2.55503 24.1064 2.56523 24.1064 2.57568V14.364C24.1064 15.4199 24.962 16.2755 26.018 16.2755C27.0739 16.2755 27.9295 15.4199 27.9295 14.364V6.82108L44.9246 21.8679C44.8359 21.9304 44.7505 21.9995 44.671 22.0787L27.9293 38.8205V26.2584C27.9293 25.2024 27.0737 24.3468 26.0177 24.3468C24.9618 24.3468 24.1062 25.2024 24.1062 26.2584V28.594H14.2299C13.174 28.594 12.3184 29.4496 12.3184 30.5055C12.3184 31.5615 13.174 32.4171 14.2299 32.4171H24.1062V43.4354C24.1062 44.4914 24.9618 45.347 26.0177 45.347H86.2312C86.2941 45.347 86.3571 45.3437 86.4198 45.3376C86.4491 45.3347 86.4774 45.3291 86.5062 45.3251C86.5393 45.3205 86.5719 45.3166 86.6046 45.3103ZM84.3199 38.8207L67.5779 22.079C67.5672 22.0683 67.5557 22.0593 67.5447 22.0492L80.1311 11.3708C80.936 10.6877 81.0349 9.48168 80.3518 8.67654C79.6693 7.87191 78.4632 7.77251 77.6575 8.45582L56.1512 26.7021L31.0606 4.48798H84.3199V38.8207ZM47.3747 24.7827C47.5111 24.6463 47.6217 24.4944 47.7081 24.3328L54.8575 30.6625C55.2189 30.9824 55.6715 31.143 56.1247 31.143C56.5646 31.143 57.0043 30.9918 57.3616 30.6891L64.6476 24.5074C64.7139 24.6042 64.7886 24.6968 64.8745 24.7827L81.6162 41.5244H30.6329L47.3747 24.7827Z"/>
</mask>
<path d="M86.6046 45.3103C86.6377 45.3036 86.6701 45.2947 86.7027 45.2863C86.7305 45.2792 86.7585 45.2733 86.7858 45.2649C86.8176 45.2552 86.8487 45.2432 86.8798 45.232C86.9073 45.2221 86.9351 45.2132 86.9624 45.2017C86.9917 45.1895 87.02 45.1752 87.0486 45.1617C87.0763 45.1484 87.1046 45.1362 87.1319 45.1214C87.1592 45.1069 87.1849 45.0903 87.2114 45.0745C87.2387 45.0582 87.2662 45.0429 87.2927 45.0251C87.321 45.0062 87.3473 44.9853 87.3745 44.9649C87.3975 44.9479 87.4209 44.9318 87.4433 44.9134C87.4846 44.8795 87.5239 44.8433 87.5621 44.8061C87.569 44.7995 87.5764 44.7939 87.5833 44.787C87.5904 44.7799 87.5965 44.772 87.6034 44.7646C87.6401 44.7269 87.6758 44.6881 87.7094 44.6474C87.7291 44.6234 87.7461 44.5984 87.7645 44.5737C87.7833 44.5482 87.8032 44.5235 87.8208 44.497C87.8397 44.4687 87.8562 44.4394 87.8736 44.4103C87.8881 44.3859 87.9036 44.3619 87.9172 44.3367C87.933 44.3074 87.9462 44.277 87.9602 44.2472C87.9727 44.2207 87.986 44.1945 87.9974 44.1672C88.0097 44.1379 88.0194 44.108 88.0301 44.0782C88.0405 44.0492 88.0517 44.0204 88.0606 43.9908C88.0698 43.9607 88.0764 43.9301 88.0841 43.8996C88.0915 43.8695 88.1002 43.8399 88.106 43.8096C88.1131 43.7737 88.1175 43.7375 88.1226 43.7013C88.1261 43.6758 88.131 43.6506 88.1335 43.6248C88.1399 43.5614 88.1432 43.4979 88.1432 43.4342V2.57619C88.1432 1.52025 87.2876 0.66465 86.2317 0.66465H26.0182C26.0014 0.66465 25.9851 0.666688 25.9683 0.667197C25.9318 0.668217 25.8956 0.669747 25.8594 0.672805C25.8306 0.675099 25.8021 0.678413 25.7736 0.682236C25.7409 0.686314 25.7086 0.691156 25.6762 0.697018C25.6459 0.702371 25.6158 0.708742 25.586 0.715624C25.5556 0.72276 25.5253 0.730407 25.4952 0.739072C25.4654 0.747483 25.4361 0.756657 25.407 0.766342C25.3772 0.776537 25.3474 0.787243 25.3181 0.798967C25.2903 0.809927 25.263 0.82114 25.236 0.833374C25.206 0.846882 25.1761 0.861411 25.1466 0.876449C25.1213 0.889447 25.0966 0.9027 25.0721 0.916718C25.0426 0.933539 25.0135 0.95138 24.9847 0.969731C24.961 0.985023 24.9378 1.00082 24.9149 1.01688C24.8879 1.036 24.8611 1.05588 24.8349 1.07678C24.8109 1.09589 24.7875 1.11552 24.7643 1.13565C24.7413 1.15579 24.7186 1.17592 24.6965 1.19733C24.6712 1.22154 24.647 1.24678 24.6231 1.27226C24.6111 1.28501 24.5983 1.29622 24.5869 1.30922C24.58 1.31687 24.5746 1.32528 24.568 1.33292C24.544 1.36071 24.5216 1.38976 24.4992 1.41907C24.4829 1.44048 24.4661 1.46189 24.4508 1.48381C24.4309 1.51235 24.4125 1.54166 24.3942 1.57123C24.3791 1.59544 24.3636 1.6194 24.3498 1.64412C24.3338 1.67267 24.3198 1.70198 24.3052 1.73129C24.292 1.75805 24.2782 1.78481 24.2662 1.81208C24.2537 1.84088 24.2428 1.8707 24.2318 1.90001C24.2209 1.92881 24.2097 1.95736 24.2002 1.98641C24.1908 2.01572 24.1832 2.04554 24.175 2.07536C24.1668 2.10595 24.1582 2.13628 24.1513 2.16712C24.1449 2.19592 24.1406 2.22523 24.1355 2.25428C24.1299 2.28742 24.1243 2.32055 24.1202 2.35368C24.1169 2.38121 24.1154 2.40925 24.1133 2.43728C24.1108 2.47296 24.1085 2.50865 24.108 2.54458C24.1077 2.55503 24.1064 2.56523 24.1064 2.57568V14.364C24.1064 15.4199 24.962 16.2755 26.018 16.2755C27.0739 16.2755 27.9295 15.4199 27.9295 14.364V6.82108L44.9246 21.8679C44.8359 21.9304 44.7505 21.9995 44.671 22.0787L27.9293 38.8205V26.2584C27.9293 25.2024 27.0737 24.3468 26.0177 24.3468C24.9618 24.3468 24.1062 25.2024 24.1062 26.2584V28.594H14.2299C13.174 28.594 12.3184 29.4496 12.3184 30.5055C12.3184 31.5615 13.174 32.4171 14.2299 32.4171H24.1062V43.4354C24.1062 44.4914 24.9618 45.347 26.0177 45.347H86.2312C86.2941 45.347 86.3571 45.3437 86.4198 45.3376C86.4491 45.3347 86.4774 45.3291 86.5062 45.3251C86.5393 45.3205 86.5719 45.3166 86.6046 45.3103ZM84.3199 38.8207L67.5779 22.079C67.5672 22.0683 67.5557 22.0593 67.5447 22.0492L80.1311 11.3708C80.936 10.6877 81.0349 9.48168 80.3518 8.67654C79.6693 7.87191 78.4632 7.77251 77.6575 8.45582L56.1512 26.7021L31.0606 4.48798H84.3199V38.8207ZM47.3747 24.7827C47.5111 24.6463 47.6217 24.4944 47.7081 24.3328L54.8575 30.6625C55.2189 30.9824 55.6715 31.143 56.1247 31.143C56.5646 31.143 57.0043 30.9918 57.3616 30.6891L64.6476 24.5074C64.7139 24.6042 64.7886 24.6968 64.8745 24.7827L81.6162 41.5244H30.6329L47.3747 24.7827Z" fill="#222222" stroke="white" stroke-width="2" mask="url(#path-1-inside-1)"/>
<path d="M34.1954 21.9347H1.91154C1.13175 21.9347 0.5 21.303 0.5 20.5232C0.5 19.7434 1.13175 19.1117 1.91154 19.1117H34.1954C34.9752 19.1117 35.6069 19.7434 35.6069 20.5232C35.6069 21.303 34.9752 21.9347 34.1954 21.9347Z" fill="#222222" stroke="white"/>
<path d="M19.7531 11.4007H5.25724C4.47745 11.4007 3.8457 10.7689 3.8457 9.98914C3.8457 9.20935 4.47745 8.5776 5.25724 8.5776H19.7531C20.5329 8.5776 21.1646 9.20935 21.1646 9.98914C21.1646 10.7689 20.5329 11.4007 19.7531 11.4007Z" fill="#222222" stroke="white"/>
<path d="M1.91154 37.1652H15.9295C16.7093 37.1652 17.341 37.797 17.341 38.5768C17.341 39.3566 16.7093 39.9883 15.9295 39.9883H1.91154C1.13175 39.9883 0.5 39.3566 0.5 38.5768C0.5 37.797 1.13175 37.1652 1.91154 37.1652Z" fill="#222222" stroke="white"/>
</svg>
