<svg width="50" height="51" viewBox="0 0 50 51" fill="none" xmlns="http://www.w3.org/2000/svg">
<path d="M39.4794 31.3909C38.4558 30.325 37.2211 29.7552 35.9125 29.7552C34.6146 29.7552 33.3693 30.3145 32.3035 31.3803L28.9688 34.7045C28.6944 34.5567 28.42 34.4195 28.1562 34.2824C27.7763 34.0924 27.4175 33.913 27.1115 33.7231C23.9878 31.7391 21.1491 29.1537 18.4265 25.8084C17.1074 24.1411 16.2209 22.7375 15.5772 21.3129C16.4425 20.5214 17.2446 19.6983 18.0255 18.9069C18.321 18.6114 18.6164 18.3053 18.9119 18.0099C21.128 15.7938 21.128 12.9234 18.9119 10.7073L16.031 7.82637C15.7038 7.49923 15.3662 7.16154 15.0496 6.82385C14.4164 6.16958 13.7516 5.49419 13.0656 4.86102C12.042 3.84795 10.8179 3.30975 9.53043 3.30975C8.24299 3.30975 6.99775 3.84795 5.94246 4.86102C5.93191 4.87157 5.93191 4.87157 5.92136 4.88213L2.33339 8.50175C0.982627 9.85252 0.212269 11.4988 0.0434234 13.4088C-0.209845 16.4903 0.6977 19.3606 1.39419 21.239C3.10375 25.8506 5.65754 30.1245 9.46712 34.7045C14.0893 40.2236 19.6506 44.5819 26.0034 47.6528C28.4306 48.8031 31.6703 50.1644 35.2899 50.3966C35.5115 50.4071 35.7437 50.4177 35.9548 50.4177C38.3925 50.4177 40.4397 49.5418 42.0438 47.8006C42.0543 47.7794 42.0754 47.7689 42.086 47.7478C42.6347 47.083 43.2679 46.4814 43.9327 45.8377C44.3865 45.4051 44.8508 44.9513 45.3046 44.4764C46.3493 43.3895 46.8981 42.1231 46.8981 40.8251C46.8981 39.5166 46.3388 38.2608 45.2729 37.2055L39.4794 31.3909ZM43.2573 42.503C43.2468 42.503 43.2468 42.5136 43.2573 42.503C42.8458 42.9462 42.4237 43.3473 41.9699 43.7905C41.2839 44.4448 40.5875 45.1307 39.9332 45.901C38.8673 47.0408 37.6116 47.5789 35.9653 47.5789C35.807 47.5789 35.6382 47.5789 35.4799 47.5684C32.3457 47.3679 29.4331 46.1438 27.2487 45.099C21.2758 42.2075 16.031 38.1025 11.6727 32.8999C8.07414 28.5627 5.66809 24.5526 4.07461 20.2471C3.0932 17.6194 2.7344 15.5722 2.89269 13.641C2.99822 12.4063 3.4731 11.3827 4.34899 10.5068L7.94751 6.90827C8.46459 6.42284 9.01334 6.15902 9.55154 6.15902C10.2164 6.15902 10.7546 6.56003 11.0923 6.89772C11.1028 6.90827 11.1134 6.91883 11.1239 6.92938C11.7676 7.53089 12.3797 8.15351 13.0234 8.81834C13.3506 9.15603 13.6883 9.49372 14.0259 9.84197L16.9069 12.7229C18.0255 13.8415 18.0255 14.8757 16.9069 15.9943C16.6008 16.3003 16.3054 16.6063 15.9993 16.9018C15.1129 17.8094 14.2687 18.6536 13.3506 19.4767C13.3295 19.4978 13.3084 19.5084 13.2978 19.5295C12.3903 20.437 12.5591 21.3235 12.7491 21.925C12.7596 21.9566 12.7702 21.9883 12.7807 22.0199C13.53 23.835 14.5852 25.5446 16.1893 27.5813L16.1998 27.5919C19.1124 31.1798 22.1833 33.9763 25.5708 36.1186C26.0034 36.3929 26.4466 36.6145 26.8688 36.8256C27.2487 37.0155 27.6075 37.1949 27.9135 37.3849C27.9557 37.406 27.9979 37.4377 28.0401 37.4588C28.3989 37.6382 28.7366 37.7226 29.0849 37.7226C29.9607 37.7226 30.5095 37.1738 30.6889 36.9944L34.298 33.3854C34.6568 33.0266 35.2266 32.5939 35.8914 32.5939C36.5457 32.5939 37.0839 33.0055 37.4111 33.3643C37.4216 33.3748 37.4216 33.3748 37.4322 33.3854L43.2468 39.2C44.3337 40.2764 44.3337 41.3844 43.2573 42.503Z" fill="#222222"/>
<path d="M26.9852 12.3113C29.75 12.7757 32.2616 14.0842 34.2666 16.0892C36.2717 18.0943 37.5697 20.6059 38.0445 23.3707C38.1606 24.0672 38.7621 24.5526 39.4481 24.5526C39.5325 24.5526 39.6064 24.5421 39.6908 24.5315C40.4717 24.4049 40.9888 23.6662 40.8622 22.8853C40.2923 19.54 38.7094 16.4903 36.2928 14.0737C33.8762 11.6571 30.8264 10.0741 27.4811 9.50427C26.7002 9.37764 25.9721 9.89473 25.8349 10.6651C25.6977 11.4354 26.2042 12.1847 26.9852 12.3113Z" fill="#222222"/>
<path d="M49.9059 22.4737C48.9667 16.9651 46.3707 11.9525 42.3817 7.96356C38.3927 3.97459 33.3801 1.37859 27.8716 0.439383C27.1012 0.302196 26.373 0.829838 26.2359 1.6002C26.1092 2.38111 26.6263 3.10925 27.4072 3.24644C32.3249 4.08011 36.8098 6.41229 40.3767 9.9686C43.9435 13.5355 46.2652 18.0204 47.0988 22.9381C47.2149 23.6345 47.8164 24.12 48.5024 24.12C48.5868 24.12 48.6607 24.1094 48.7451 24.0989C49.5154 23.9828 50.0431 23.2441 49.9059 22.4737Z" fill="#222222"/>
</svg>
