<svg width="17" height="18" viewBox="0 0 17 18" fill="none" xmlns="http://www.w3.org/2000/svg">
<path d="M9.96045 11.3052L9.96187 11.3059C9.99125 11.3212 10.0216 11.3368 10.0524 11.3526C10.0922 11.373 10.1329 11.3938 10.1736 11.4152L11.2547 10.3383L11.2548 10.3382M9.96045 11.3052L13.7644 10.4126C13.4165 10.0506 12.9968 9.85705 12.5521 9.85705C12.1109 9.85705 11.6876 10.047 11.3254 10.409L11.2548 10.3382M9.96045 11.3052C9.83045 11.2403 9.71308 11.1815 9.61382 11.12C8.56287 10.4529 7.60611 9.58271 6.68668 8.45393C6.26254 7.91814 5.97343 7.46616 5.76154 7.01396C6.00911 6.78466 6.24173 6.54877 6.46647 6.32087C6.49218 6.2948 6.51778 6.26884 6.5433 6.243C6.59376 6.19257 6.64417 6.14129 6.69421 6.09039L6.69436 6.09024C6.74463 6.03911 6.79454 5.98835 6.84439 5.93854C7.23656 5.54665 7.43863 5.09031 7.43863 4.62766C7.43863 4.165 7.23656 3.70867 6.84439 3.31678L5.86518 2.33828C5.75379 2.22696 5.64017 2.11341 5.53385 2.0001L5.53386 2.00009L5.53276 1.99895C5.3177 1.77688 5.09054 1.54624 4.85567 1.32952C4.49175 0.970153 4.0517 0.774969 3.58502 0.774969C3.11808 0.774969 2.67085 0.970353 2.29627 1.32969L2.29625 1.32967L2.29481 1.33112L2.28764 1.33828L2.28764 1.33828L2.28733 1.33859L1.06812 2.56767C1.06807 2.56772 1.06802 2.56777 1.06797 2.56782C0.592351 3.04316 0.320307 3.62417 0.260851 4.29627L0.260849 4.29627L0.260799 4.29688C0.172844 5.36622 0.487939 6.35826 0.725819 6.99936C1.31151 8.57814 2.18594 10.0394 3.48664 11.602L3.48685 11.6023C5.06676 13.4874 6.96824 14.9766 9.14055 16.0259L9.14125 16.0263C9.9686 16.4181 11.084 16.8875 12.3341 16.9676L12.3357 16.9677C12.4107 16.9713 12.4919 16.975 12.5664 16.975C13.4218 16.975 14.1447 16.6666 14.7095 16.0539L14.7191 16.0435L14.7202 16.0412C14.7213 16.0401 14.7224 16.0389 14.7234 16.0376C14.7259 16.0347 14.7288 16.0311 14.7317 16.0268C14.8996 15.8242 15.0915 15.6388 15.2984 15.4388C15.3146 15.4232 15.331 15.4074 15.3474 15.3915L9.96045 11.3052ZM11.2548 10.3382C11.6326 9.96068 12.0803 9.75705 12.5521 9.75705C13.0277 9.75705 13.4721 9.96444 13.8359 10.3427M11.2548 10.3382L13.8359 10.3427M13.8359 10.3427L15.8039 12.3164C15.804 12.3165 15.804 12.3165 15.8041 12.3166C16.1825 12.691 16.386 13.1422 16.386 13.6169C16.386 14.0875 16.1866 14.5415 15.8165 14.9263C15.8165 14.9263 15.8165 14.9263 15.8164 14.9264L15.7443 14.857C15.5901 15.0183 15.4323 15.1725 15.2781 15.3194L13.8359 10.3427ZM14.9632 14.1317C14.9644 14.1299 14.9655 14.1284 14.9665 14.1271C14.9724 14.1193 14.9789 14.1131 14.9853 14.1082C15.1513 13.9328 15.2228 13.7704 15.2224 13.6207C15.2221 13.4689 15.1477 13.3074 14.9746 13.136L14.9742 13.1357L12.9979 11.1608L12.9979 11.1608L12.9907 11.1536L12.9875 11.1503L12.9875 11.1503C12.8837 11.0365 12.7257 10.9212 12.5449 10.9212C12.3604 10.9212 12.1914 11.0434 12.074 11.1608L10.8473 12.3866L10.8462 12.3877C10.782 12.4518 10.5706 12.6631 10.2314 12.6631C10.0955 12.6631 9.96555 12.6299 9.83161 12.563C9.82007 12.5572 9.80935 12.5505 9.80286 12.5465L9.80181 12.5458C9.7938 12.5408 9.79073 12.539 9.78857 12.5379L9.78033 12.5338L9.78055 12.5334C9.6812 12.4718 9.56367 12.413 9.43347 12.3479L9.43161 12.347C9.28925 12.2759 9.13481 12.1987 8.98346 12.1028M14.9632 14.1317L9.03699 12.0183M14.9632 14.1317C14.8541 14.2483 14.7428 14.3564 14.6236 14.4722C14.5967 14.4983 14.5693 14.5249 14.5415 14.5521M14.9632 14.1317L14.5415 14.5521M8.98346 12.1028L9.03699 12.0183M8.98346 12.1028C8.9835 12.1028 8.98353 12.1029 8.98357 12.1029L9.03699 12.0183M8.98346 12.1028C7.82291 11.3694 6.7723 10.4132 5.77754 9.18936M9.03699 12.0183C7.88562 11.2907 6.84185 10.3409 5.85189 9.12228M5.77754 9.18936L5.77761 9.18943L5.7812 9.19301L5.85189 9.12228M5.77754 9.18936L5.76921 9.18103L5.76976 9.1806C5.22078 8.48404 4.85652 7.89543 4.59733 7.26799L4.59467 7.26153L4.5949 7.26145L4.58952 7.24532L4.58414 7.22919L4.58363 7.22769L4.58365 7.22768C4.54989 7.12088 4.51447 6.97848 4.53303 6.81821C4.55166 6.65743 4.62356 6.48702 4.78804 6.32003M5.77754 9.18936C5.77645 9.18802 5.77536 9.18668 5.77427 9.18533L5.81377 9.15325L5.85189 9.12228M5.85189 9.12228L4.78804 6.32003M4.78804 6.32003C4.78392 6.32545 4.77976 6.33183 4.77608 6.33918L4.86551 6.38393M4.78804 6.32003L5.8483 9.1187C5.3031 8.42694 4.94442 7.8463 4.68976 7.22981L4.679 7.19755C4.61443 6.99325 4.55705 6.69217 4.86551 6.38393M4.78804 6.32003C4.79615 6.30936 4.80413 6.30241 4.80808 6.29902L4.81202 6.29572L4.81368 6.29435L4.81662 6.29142L4.81672 6.29153C5.12624 6.01423 5.41132 5.7294 5.71223 5.42156L5.71428 5.41946L5.71431 5.41949C5.78271 5.35349 5.84888 5.2866 5.91649 5.21824C5.95096 5.18339 5.98581 5.14816 6.02152 5.11248C6.20212 4.93201 6.27736 4.77319 6.27736 4.62766C6.27736 4.48212 6.20212 4.32331 6.02152 4.14284L5.04232 3.16434L5.04123 3.16326L5.04124 3.16325C4.98459 3.10487 4.9279 3.04733 4.87134 2.98992L4.87005 2.98861C4.81315 2.93086 4.75638 2.87323 4.70046 2.81554L4.70044 2.81552C4.48183 2.58991 4.27524 2.37995 4.05838 2.17745L4.0559 2.17514L4.05594 2.1751L4.04518 2.16435L4.04518 2.16434C3.93663 2.05587 3.77806 1.94271 3.59219 1.94271C3.44331 1.94271 3.28046 2.01565 3.11654 2.16906L1.89457 3.39015C1.61364 3.67088 1.46245 3.99644 1.42856 4.39227C1.37638 5.0287 1.49391 5.70869 1.8243 6.59265L1.8244 6.59293C2.3613 8.04257 3.17258 9.39487 4.38996 10.8611C5.86235 12.6174 7.63368 14.0027 9.65069 14.9784C10.3909 15.3322 11.3663 15.7406 12.4114 15.8074L12.4117 15.8074C12.4616 15.8108 12.5155 15.8108 12.57 15.8108C13.1023 15.8108 13.5018 15.6391 13.844 15.2743C14.0694 15.0094 14.3085 14.7742 14.5415 14.5521M4.78804 6.32003C4.79028 6.31775 4.79255 6.31547 4.79483 6.31319L4.86551 6.38393M4.86551 6.38393C4.86783 6.3793 4.87164 6.37617 4.87598 6.3726C4.87836 6.37064 4.88091 6.36855 4.88345 6.36601C5.1955 6.08644 5.48245 5.7997 5.78374 5.49146C5.85295 5.42468 5.92057 5.35632 5.98872 5.28743C6.02299 5.25278 6.0574 5.218 6.09221 5.18321C6.47241 4.80329 6.47241 4.45203 6.09221 4.0721L5.113 3.09361C5.05606 3.03493 4.99912 2.97713 4.94261 2.91978C4.88522 2.86153 4.82828 2.80373 4.77225 2.74594L14.5415 14.5521M15.1136 14.1147C15.0937 14.1383 15.0725 14.1619 15.0498 14.1855L15.0485 14.1842V14.0884C15.0568 14.0886 15.066 14.0899 15.0758 14.0929C15.0883 14.0968 15.1017 14.1038 15.1136 14.1147Z" fill="#222222" stroke="#222222" stroke-width="0.2"/>
</svg>
