<svg width="23" height="23" viewBox="0 0 23 23" fill="none" xmlns="http://www.w3.org/2000/svg">
<path d="M4.18224 0C1.88224 0 0 1.88224 0 4.18224V18.8178C0 21.1178 1.88224 23 4.18224 23H18.8178C21.1178 23 23 21.1178 23 18.8178V4.18224C23 1.88224 21.1178 0 18.8178 0H4.18224ZM17.358 18.4235C16.2971 19.4843 12.3402 18.4774 8.4302 14.5698C4.52255 10.6598 3.51571 6.70286 4.57653 5.64204C5.49653 4.72204 6.61602 3.11673 8.29878 5.20786C9.98153 7.29898 9.15306 7.88571 8.2049 8.83388C7.54306 9.49806 8.92776 11.1761 10.3758 12.6242C11.8239 14.0722 13.5019 15.4569 14.1638 14.7928C15.1143 13.8446 15.6987 13.0185 17.7921 14.6989C19.8856 16.3816 18.278 17.5035 17.358 18.4235Z" fill="#007799"/>
</svg>
