<svg width="21" height="26" viewBox="0 0 21 26" fill="none" xmlns="http://www.w3.org/2000/svg">
<path d="M17.4583 2.57894C15.7374 0.926946 13.3559 0.0170898 10.7526 0.0170898C6.77576 0.0170898 4.32986 1.64724 2.9783 3.01468C1.31259 4.6999 0.357422 6.93753 0.357422 9.15396C0.357422 11.9368 1.52143 14.0728 3.47072 14.8674C3.60159 14.921 3.73326 14.948 3.86235 14.948C4.27358 14.948 4.59941 14.679 4.7123 14.2473C4.7781 13.9997 4.93057 13.3889 4.99685 13.1237C5.13876 12.5999 5.02411 12.348 4.71464 11.9833C4.15086 11.3163 3.88832 10.5274 3.88832 9.50084C3.88832 6.45148 6.15893 3.21062 10.3673 3.21062C13.7064 3.21062 15.7807 5.10846 15.7807 8.16347C15.7807 10.0913 15.3655 11.8767 14.6112 13.1909C14.0871 14.1041 13.1655 15.1926 11.7506 15.1926C11.1388 15.1926 10.5892 14.9413 10.2424 14.5031C9.91479 14.0889 9.80682 13.5538 9.93857 12.9962C10.0874 12.3661 10.2904 11.7089 10.4868 11.0735C10.845 9.91303 11.1837 8.81699 11.1837 7.94253C11.1837 6.4468 10.2642 5.4418 8.89575 5.4418C7.15667 5.4418 5.79423 7.20813 5.79423 9.46302C5.79423 10.5689 6.08813 11.396 6.22117 11.7136C6.0021 12.6419 4.70004 18.1604 4.45307 19.2011C4.31027 19.8086 3.45 24.6066 4.87389 24.9892C6.47371 25.4191 7.90373 20.7461 8.04927 20.218C8.16724 19.7886 8.58 18.1647 8.83294 17.1665C9.60524 17.9104 10.8488 18.4133 12.0587 18.4133C14.3397 18.4133 16.3911 17.3869 17.835 15.5232C19.2353 13.7156 20.0066 11.1961 20.0066 8.42931C20.0066 6.26627 19.0777 4.13386 17.4583 2.57894Z" fill="black"/>
</svg>
