<svg width="17" height="16" viewBox="0 0 17 16" fill="none" xmlns="http://www.w3.org/2000/svg">
<path d="M16.7304 14.5735L12.7861 10.6129C13.8002 9.44901 14.3559 7.98455 14.3559 6.45999C14.3559 2.89801 11.3542 0 7.66476 0C3.97533 0 0.973633 2.89801 0.973633 6.45999C0.973633 10.022 3.97533 12.92 7.66476 12.92C9.04982 12.92 10.3697 12.5167 11.4982 11.751L15.4724 15.7416C15.6385 15.9082 15.862 16 16.1014 16C16.328 16 16.543 15.9166 16.7062 15.7649C17.053 15.4428 17.064 14.9085 16.7304 14.5735ZM7.66476 1.68522C10.3918 1.68522 12.6104 3.82713 12.6104 6.45999C12.6104 9.09286 10.3918 11.2348 7.66476 11.2348C4.93769 11.2348 2.71914 9.09286 2.71914 6.45999C2.71914 3.82713 4.93769 1.68522 7.66476 1.68522Z" fill="#222222"/>
</svg>
