<svg width="17" height="18" viewBox="0 0 17 18" fill="none" xmlns="http://www.w3.org/2000/svg">
<path d="M0.186133 17V17.1H0.286133H1.53613H1.63613V17C1.63613 13.3333 4.61939 10.35 8.28613 10.35C11.9529 10.35 14.9361 13.3333 14.9361 17V17.1H15.0361H16.2861H16.3861V17C16.3861 14.8366 15.5434 12.8022 14.0137 11.2724L13.943 11.3431L14.0137 11.2724C13.1781 10.4369 12.1917 9.80665 11.1158 9.4064C12.2654 8.54399 13.0111 7.17014 13.0111 5.625C13.0111 3.01955 10.8916 0.9 8.28613 0.9C5.68069 0.9 3.56113 3.01955 3.56113 5.625C3.56113 7.17014 4.30683 8.544 5.45646 9.4064C4.3806 9.80666 3.39416 10.4369 2.55858 11.2724L2.62929 11.3431L2.55858 11.2724C1.02883 12.8022 0.186133 14.8366 0.186133 17ZM8.28613 8.9C6.48039 8.9 5.01113 7.43077 5.01113 5.625C5.01113 3.81923 6.48039 2.35 8.28613 2.35C10.0919 2.35 11.5611 3.81923 11.5611 5.625C11.5611 7.43077 10.0919 8.9 8.28613 8.9Z" fill="#222222" stroke="#222222" stroke-width="0.2"/>
</svg>
