<svg width="27" height="19" viewBox="0 0 27 19" fill="none" xmlns="http://www.w3.org/2000/svg">
<path d="M25.0263 2.71792C24.3174 1.4568 23.548 1.22483 21.9814 1.13662C20.4164 1.03043 16.4811 0.986328 13.0718 0.986328C9.65605 0.986328 5.71914 1.03043 4.15581 1.13498C2.59248 1.22483 1.82143 1.45516 1.10593 2.71792C0.375722 3.9774 0 6.14678 0 9.96608C0 9.96935 0 9.97098 0 9.97098C0 9.97425 0 9.97588 0 9.97588V9.97915C0 13.7821 0.375722 15.9678 1.10593 17.2142C1.82143 18.4754 2.59085 18.7041 4.15418 18.8102C5.71914 18.9017 9.65605 18.9556 13.0718 18.9556C16.4811 18.9556 20.4164 18.9017 21.983 18.8119C23.5496 18.7057 24.319 18.477 25.028 17.2159C25.7647 15.9695 26.1372 13.7837 26.1372 9.98078C26.1372 9.98078 26.1372 9.97588 26.1372 9.97261C26.1372 9.97261 26.1372 9.96935 26.1372 9.96771C26.1372 6.14678 25.7647 3.9774 25.0263 2.71792ZM9.80144 14.8717V5.07026L17.9693 9.97098L9.80144 14.8717Z" fill="black"/>
</svg>
